<svg width="56" height="56" viewBox="0 0 56 56" fill="none" xmlns="http://www.w3.org/2000/svg">
<rect width="56" height="56" rx="12" fill="url(#paint0_linear_378_2403)"/>
<g clip-path="url(#clip0_378_2403)">
<path d="M32 32V34C32 34.5304 31.7893 35.0391 31.4142 35.4142C31.0391 35.7893 30.5304 36 30 36H22C21.4696 36 20.9609 35.7893 20.5858 35.4142C20.2107 35.0391 20 34.5304 20 34V26C20 25.4696 20.2107 24.9609 20.5858 24.5858C20.9609 24.2107 21.4696 24 22 24H24V22C24 21.4696 24.2107 20.9609 24.5858 20.5858C24.9609 20.2107 25.4696 20 26 20H34C34.5304 20 35.0391 20.2107 35.4142 20.5858C35.7893 20.9609 36 21.4696 36 22V30C36 30.5304 35.7893 31.0391 35.4142 31.4142C35.0391 31.7893 34.5304 32 34 32H32Z" stroke="white" stroke-width="2" stroke-linecap="round" stroke-linejoin="round"/>
<path d="M26 24H24V26" stroke="white" stroke-width="2" stroke-linecap="round" stroke-linejoin="round"/>
<path d="M24 30V32H26" stroke="white" stroke-width="2" stroke-linecap="round" stroke-linejoin="round"/>
<path d="M30 24H32V26" stroke="white" stroke-width="2" stroke-linecap="round" stroke-linejoin="round"/>
<path d="M32 30V32H30" stroke="white" stroke-width="2" stroke-linecap="round" stroke-linejoin="round"/>
</g>
<defs>
<linearGradient id="paint0_linear_378_2403" x1="56" y1="28" x2="0" y2="28" gradientUnits="userSpaceOnUse">
<stop stop-color="#73E5E2"/>
<stop offset="1" stop-color="#394F87"/>
</linearGradient>
<clipPath id="clip0_378_2403">
<rect width="24" height="24" fill="white" transform="translate(16 16)"/>
</clipPath>
</defs>
</svg>
