<svg width="56" height="56" viewBox="0 0 56 56" fill="none" xmlns="http://www.w3.org/2000/svg">
<rect width="56" height="56" rx="12" fill="url(#paint0_linear_378_2342)"/>
<g clip-path="url(#clip0_378_2342)">
<path d="M35.875 22.2701C36.575 22.6681 37.005 23.4131 37 24.2181V31.5021C37 32.3111 36.557 33.0571 35.842 33.4501L29.092 37.7201C28.7574 37.9038 28.3818 38.0001 28 38.0001C27.6182 38.0001 27.2426 37.9038 26.908 37.7201L20.158 33.4501C19.8082 33.2589 19.5161 32.9772 19.3124 32.6346C19.1087 32.2919 19.0008 31.9007 19 31.5021V24.2171C19 23.4081 19.443 22.6631 20.158 22.2701L26.908 18.2901C27.2525 18.1001 27.6396 18.0005 28.033 18.0005C28.4264 18.0005 28.8135 18.1001 29.158 18.2901L35.908 22.2701H35.875Z" stroke="white" stroke-width="2" stroke-linecap="round" stroke-linejoin="round"/>
<path d="M28 24V28" stroke="white" stroke-width="2" stroke-linecap="round" stroke-linejoin="round"/>
<path d="M28 32H28.01" stroke="white" stroke-width="2" stroke-linecap="round" stroke-linejoin="round"/>
</g>
<defs>
<linearGradient id="paint0_linear_378_2342" x1="56" y1="28" x2="0" y2="28" gradientUnits="userSpaceOnUse">
<stop stop-color="#73E5E2"/>
<stop offset="1" stop-color="#394F87"/>
</linearGradient>
<clipPath id="clip0_378_2342">
<rect width="24" height="24" fill="white" transform="translate(16 16)"/>
</clipPath>
</defs>
</svg>
