<svg width="246" height="68" viewBox="0 0 246 68" fill="none" xmlns="http://www.w3.org/2000/svg">
<path d="M65.7566 33.5C65.7566 26.6186 63.0229 20.019 58.157 15.153C53.2911 10.2871 46.6915 7.55347 39.8101 7.55347C32.9286 7.55347 26.3291 10.2871 21.4631 15.153C16.5972 20.019 13.8635 26.6186 13.8635 33.5H21.9719C24.6588 33.5 26.7542 31.2484 27.7384 28.7482C28.3845 27.1067 29.365 25.5982 30.6365 24.3265C33.0695 21.8936 36.3694 20.5267 39.8101 20.5267C43.2508 20.5267 46.5507 21.8936 48.9836 24.3265C51.4166 26.7595 52.7833 30.0593 52.7833 33.5H65.7566Z" fill="url(#paint0_linear_820_831)"/>
<path d="M50.8097 43.4292C52.1137 40.2812 52.7849 36.9073 52.7849 33.5H65.7568C65.7568 47.8299 54.1401 59.4464 39.8102 59.4464C37.5661 59.4464 35.3883 59.1616 33.3116 58.626C34.4866 58.3233 35.6416 57.9377 36.7676 57.4714C39.9156 56.1674 42.7759 54.2563 45.1853 51.8469C47.5947 49.4376 49.5059 46.5772 50.8097 43.4292Z" fill="#FBCF8E"/>
<path d="M0.891846 33.5C0.891845 36.9074 1.56297 40.2814 2.8669 43.4294C4.17085 46.5774 6.08205 49.4377 8.49141 51.8471C10.9008 54.2563 13.7611 56.1676 16.9091 57.4716C20.057 58.7755 23.431 59.4466 26.8384 59.4466C30.2457 59.4466 33.6197 58.7755 36.7677 57.4716C39.9157 56.1676 42.776 54.2563 45.1854 51.8471C47.5947 49.4377 49.5059 46.5774 50.8098 43.4294C52.1138 40.2814 52.785 36.9074 52.785 33.5H44.6766C41.9897 33.5 39.8943 35.7517 38.9101 38.2517C38.8822 38.3229 38.8534 38.3939 38.8241 38.4648C38.1721 40.0387 37.2166 41.4689 36.0118 42.6736C34.8072 43.8782 33.377 44.8339 31.803 45.4859C30.2291 46.1378 28.5421 46.4734 26.8384 46.4734C25.1347 46.4734 23.4477 46.1378 21.8738 45.4859C20.2997 44.8339 18.8696 43.8782 17.6649 42.6736C16.4602 41.4689 15.5046 40.0387 14.8527 38.4648C14.2007 36.8907 13.8651 35.2037 13.8651 33.5H0.891846Z" fill="url(#paint1_linear_820_831)"/>
<path d="M0.894409 33.5C0.894409 19.1701 12.511 7.55347 26.8408 7.55347C29.0845 7.55347 31.2615 7.83822 33.3381 8.37358C28.8824 9.5214 24.7722 11.8443 21.4633 15.1531C16.5974 20.0189 13.8637 26.6186 13.8637 33.5H0.894409Z" fill="#73E5E2"/>
<path d="M102.867 22.905C103.017 23.325 103.122 23.805 103.182 24.345C103.272 24.855 103.317 25.38 103.317 25.92C103.317 26.46 103.272 27 103.182 27.54C103.122 28.05 103.032 28.5 102.912 28.89C102.432 30.57 101.472 31.98 100.032 33.12C98.5917 34.23 96.9417 35.04 95.0817 35.55C93.2517 36.06 91.3467 36.24 89.3667 36.09C87.4167 35.94 85.6767 35.445 84.1467 34.605C83.1867 34.065 82.3617 33.405 81.6717 32.625C80.9817 31.845 80.3967 30.975 79.9167 30.015C79.7367 29.685 79.6167 29.31 79.5567 28.89C79.5267 28.44 79.5717 28.02 79.6917 27.63C79.8117 27.21 80.0067 26.85 80.2767 26.55C80.5467 26.22 80.9217 25.995 81.4017 25.875C81.7017 25.815 82.0317 25.785 82.3917 25.785C82.7817 25.785 83.1567 25.845 83.5167 25.965C83.8767 26.055 84.2067 26.22 84.5067 26.46C84.8067 26.67 85.0467 26.97 85.2267 27.36C85.5567 27.99 86.0217 28.575 86.6217 29.115C87.2517 29.625 87.9117 30.045 88.6017 30.375C89.5917 30.705 90.5817 30.84 91.5717 30.78C92.5917 30.72 93.5067 30.495 94.3167 30.105C95.1567 29.715 95.8317 29.19 96.3417 28.53C96.8517 27.84 97.1067 27.06 97.1067 26.19C97.1067 25.47 97.0017 24.885 96.7917 24.435C96.5817 23.955 96.2817 23.565 95.8917 23.265C95.5317 22.935 95.0817 22.665 94.5417 22.455C94.0317 22.245 93.4617 22.065 92.8317 21.915C92.1117 21.765 91.3767 21.66 90.6267 21.6C89.9067 21.54 89.1717 21.465 88.4217 21.375C87.6717 21.285 86.9367 21.165 86.2167 21.015C85.4967 20.865 84.7917 20.64 84.1017 20.34C82.7217 19.77 81.6717 18.9 80.9517 17.73C80.2317 16.56 79.7967 15.3 79.6467 13.95C79.5267 12.6 79.6917 11.265 80.1417 9.945C80.5917 8.595 81.3117 7.44 82.3017 6.48C83.2617 5.61 84.4017 4.995 85.7217 4.635C87.0717 4.245 88.5567 4.02 90.1767 3.96C91.0767 3.93 91.9767 3.96 92.8767 4.05C93.8067 4.14 94.6917 4.29 95.5317 4.5C96.4017 4.71 97.1967 4.98 97.9167 5.31C98.6667 5.64 99.3117 6.03 99.8517 6.48C100.242 6.78 100.632 7.185 101.022 7.695C101.412 8.175 101.712 8.7 101.922 9.27C102.132 9.81 102.192 10.335 102.102 10.845C102.042 11.355 101.727 11.79 101.157 12.15C100.677 12.45 100.212 12.585 99.7617 12.555C99.3417 12.495 98.9367 12.36 98.5467 12.15C98.1567 11.91 97.7817 11.64 97.4217 11.34C97.0617 11.04 96.7317 10.77 96.4317 10.53C95.6217 9.93 94.6167 9.525 93.4167 9.315C92.2167 9.105 91.0917 9.06 90.0417 9.18C89.3817 9.27 88.7667 9.42 88.1967 9.63C87.6267 9.84 87.1317 10.125 86.7117 10.485C86.3217 10.845 86.0067 11.295 85.7667 11.835C85.5567 12.345 85.4817 12.93 85.5417 13.59C85.5717 14.07 85.7067 14.475 85.9467 14.805C86.2167 15.135 86.5317 15.405 86.8917 15.615C87.2817 15.825 87.7017 15.99 88.1517 16.11C88.6017 16.23 89.0517 16.32 89.5017 16.38C90.8517 16.56 92.2017 16.695 93.5517 16.785C94.9017 16.875 96.2217 17.175 97.5117 17.685C98.8317 18.195 99.9567 18.885 100.887 19.755C101.817 20.625 102.477 21.675 102.867 22.905ZM108.33 31.23L108.375 27.675L108.42 21.06C108.45 20.1 108.465 19.11 108.465 18.09C108.465 17.07 108.465 16.02 108.465 14.94C108.465 13.86 108.465 12.9 108.465 12.06C108.465 11.22 108.495 10.275 108.555 9.225V9.045C108.585 8.745 108.6 8.445 108.6 8.145C108.63 7.815 108.645 7.485 108.645 7.155C108.675 6.615 108.84 6.03 109.14 5.4C109.35 4.98 109.665 4.62 110.085 4.32C110.565 4.08 111.03 3.96 111.48 3.96C111.72 3.96 111.93 3.975 112.11 4.005C112.32 4.005 112.515 4.02 112.695 4.05C113.085 4.11 113.43 4.29 113.73 4.59C113.91 4.74 114.075 4.98 114.225 5.31C114.285 5.49 114.33 5.67 114.36 5.85C114.42 6 114.465 6.165 114.495 6.345C114.525 6.555 114.54 6.75 114.54 6.93C114.57 7.11 114.585 7.29 114.585 7.47C114.585 7.68 114.57 7.875 114.54 8.055C114.54 8.205 114.54 8.37 114.54 8.55V9.315L114.27 32.67V33.12C114.27 33.21 114.255 33.33 114.225 33.48C114.225 33.6 114.21 33.75 114.18 33.93C114.12 34.08 114.06 34.245 114 34.425C113.97 34.575 113.925 34.74 113.865 34.92C113.775 35.07 113.67 35.22 113.55 35.37C113.46 35.49 113.34 35.61 113.19 35.73C112.95 35.97 112.56 36.135 112.02 36.225C111.21 36.405 110.445 36.33 109.725 36C109.365 35.76 109.11 35.46 108.96 35.1C108.87 35.01 108.825 34.92 108.825 34.83C108.795 34.77 108.765 34.725 108.735 34.695C108.705 34.665 108.675 34.62 108.645 34.56C108.585 34.41 108.54 34.26 108.51 34.11C108.48 33.93 108.465 33.75 108.465 33.57C108.435 33.42 108.405 33.27 108.375 33.12C108.375 32.97 108.36 32.82 108.33 32.67C108.3 32.43 108.3 32.175 108.33 31.905V31.23ZM146.952 32.76C146.922 33.12 146.877 33.495 146.817 33.885C146.757 34.275 146.652 34.635 146.502 34.965C146.352 35.325 146.157 35.595 145.917 35.775C145.587 36.075 145.197 36.24 144.747 36.27C144.327 36.42 143.922 36.465 143.532 36.405C143.142 36.345 142.782 36.24 142.452 36.09C142.032 35.82 141.717 35.505 141.507 35.145C141.327 34.755 141.192 34.35 141.102 33.93C141.012 33.51 140.967 33.075 140.967 32.625C140.967 32.175 140.967 31.755 140.967 31.365V27.855L140.922 20.97C140.922 20.49 140.922 20.115 140.922 19.845C140.922 19.575 140.922 19.335 140.922 19.125C140.922 18.885 140.907 18.63 140.877 18.36C140.877 18.06 140.877 17.64 140.877 17.1C140.877 17.01 140.877 16.86 140.877 16.65C140.907 16.41 140.892 15.795 140.832 14.805C139.662 16.755 138.687 18.33 137.907 19.53C137.157 20.7 136.512 21.615 135.972 22.275C135.462 22.905 135.012 23.34 134.622 23.58C134.232 23.79 133.827 23.91 133.407 23.94C133.167 23.97 132.927 23.925 132.687 23.805C132.447 23.685 132.207 23.535 131.967 23.355C131.757 23.175 131.547 22.995 131.337 22.815C131.157 22.605 131.007 22.41 130.887 22.23C130.167 21.33 129.357 20.25 128.457 18.99C127.557 17.73 126.627 16.2 125.667 14.4C125.667 14.43 125.652 14.925 125.622 15.885C125.622 16.845 125.622 18.045 125.622 19.485C125.622 20.895 125.607 22.425 125.577 24.075C125.577 25.695 125.562 27.21 125.532 28.62C125.532 30.03 125.517 31.215 125.487 32.175C125.457 33.105 125.427 33.57 125.397 33.57C125.397 34.08 125.277 34.56 125.037 35.01C124.797 35.43 124.467 35.775 124.047 36.045C123.657 36.315 123.192 36.465 122.652 36.495C122.112 36.525 121.527 36.375 120.897 36.045C120.507 35.805 120.207 35.46 119.997 35.01C119.817 34.56 119.697 34.14 119.637 33.75C119.607 33.33 119.577 32.925 119.547 32.535C119.547 32.145 119.547 31.74 119.547 31.32L119.592 27.81L119.637 20.88V14.85C119.637 12.24 119.727 9.675 119.907 7.155C119.907 6.825 119.937 6.525 119.997 6.255C120.087 5.955 120.192 5.67 120.312 5.4C120.552 4.92 120.867 4.56 121.257 4.32C121.707 4.05 122.187 3.915 122.697 3.915C122.907 3.915 123.102 3.93 123.282 3.96C123.492 3.96 123.687 3.975 123.867 4.005C124.467 4.125 124.977 4.485 125.397 5.085C125.847 5.655 126.267 6.15 126.657 6.57C126.897 6.84 127.152 7.17 127.422 7.56C127.692 7.95 127.962 8.355 128.232 8.775C128.502 9.195 128.757 9.6 128.997 9.99C129.237 10.38 129.447 10.725 129.627 11.025C130.407 12.285 131.097 13.44 131.697 14.49C132.327 15.54 132.912 16.44 133.452 17.19C133.542 17.1 133.647 16.98 133.767 16.83C133.887 16.65 134.007 16.47 134.127 16.29C134.277 16.08 134.397 15.885 134.487 15.705C134.607 15.525 134.697 15.375 134.757 15.255C135.057 14.775 135.357 14.31 135.657 13.86C135.957 13.38 136.272 12.885 136.602 12.375C136.962 11.835 137.322 11.25 137.682 10.62C138.072 9.99 138.522 9.27 139.032 8.46C139.242 8.1 139.512 7.665 139.842 7.155C140.172 6.645 140.547 6.15 140.967 5.67C141.387 5.19 141.822 4.785 142.272 4.455C142.752 4.095 143.232 3.915 143.712 3.915C143.952 3.915 144.162 3.93 144.342 3.96C144.522 3.96 144.702 3.975 144.882 4.005C145.242 4.035 145.587 4.2 145.917 4.5C146.157 4.74 146.337 4.995 146.457 5.265C146.577 5.655 146.652 5.985 146.682 6.255C146.712 6.465 146.727 6.66 146.727 6.84C146.757 7.02 146.772 7.2 146.772 7.38C146.772 9.06 146.787 10.725 146.817 12.375C146.847 14.025 146.862 15.69 146.862 17.37C146.862 19.41 146.862 21.51 146.862 23.67C146.892 25.83 146.907 27.93 146.907 29.97C146.907 30.39 146.922 30.84 146.952 31.32C146.982 31.8 146.982 32.28 146.952 32.76ZM182.746 5.94C182.866 6.51 182.866 7.11 182.746 7.74C182.686 8.04 182.626 8.34 182.566 8.64C182.536 8.91 182.491 9.195 182.431 9.495L182.386 9.675C181.966 11.535 181.486 13.5 180.946 15.57C180.436 17.61 179.971 19.545 179.551 21.375C179.191 22.875 178.816 24.525 178.426 26.325C178.036 28.125 177.631 29.775 177.211 31.275C177.061 31.785 176.896 32.295 176.716 32.805C176.566 33.315 176.371 33.825 176.131 34.335C175.921 34.785 175.666 35.19 175.366 35.55C175.096 35.88 174.781 36.12 174.421 36.27C174.061 36.45 173.671 36.51 173.251 36.45C172.861 36.42 172.426 36.24 171.946 35.91C171.226 35.4 170.686 34.695 170.326 33.795C169.996 32.895 169.651 32.07 169.291 31.32C169.171 31.11 168.991 30.645 168.751 29.925C168.511 29.205 168.256 28.425 167.986 27.585C167.716 26.715 167.446 25.89 167.176 25.11C166.936 24.3 166.726 23.7 166.546 23.31C166.276 23.97 166.006 24.72 165.736 25.56C165.466 26.4 165.211 27.225 164.971 28.035C164.731 28.845 164.506 29.58 164.296 30.24C164.116 30.87 163.981 31.335 163.891 31.635C163.651 32.235 163.381 32.895 163.081 33.615C162.811 34.335 162.466 34.95 162.046 35.46C161.656 35.97 161.176 36.3 160.606 36.45C160.036 36.63 159.361 36.465 158.581 35.955C157.981 35.595 157.561 35.085 157.321 34.425C157.171 34.005 157.021 33.6 156.871 33.21C156.721 32.82 156.601 32.415 156.511 31.995L155.611 28.62L153.766 21.375C153.526 20.445 153.286 19.5 153.046 18.54C152.836 17.55 152.581 16.53 152.281 15.48C152.131 14.97 151.996 14.475 151.876 13.995C151.786 13.485 151.681 12.945 151.561 12.375C151.471 11.775 151.351 11.1 151.201 10.35C151.081 9.6 150.931 8.73 150.751 7.74C150.691 7.41 150.646 7.11 150.616 6.84C150.616 6.54 150.646 6.24 150.706 5.94C150.766 5.49 150.976 5.1 151.336 4.77C151.486 4.62 151.666 4.5 151.876 4.41C152.086 4.32 152.311 4.245 152.551 4.185C152.911 4.065 153.286 4.005 153.676 4.005C154.036 4.005 154.411 4.125 154.801 4.365C155.071 4.515 155.281 4.71 155.431 4.95L155.971 5.895C156.031 6.105 156.091 6.3 156.151 6.48C156.211 6.63 156.271 6.795 156.331 6.975C156.391 7.185 156.436 7.38 156.466 7.56C156.496 7.71 156.526 7.86 156.556 8.01C156.826 9.57 157.156 11.085 157.546 12.555C157.936 14.025 158.296 15.435 158.626 16.785C158.746 17.325 158.896 18 159.076 18.81C159.256 19.59 159.436 20.415 159.616 21.285C159.796 22.125 159.976 22.935 160.156 23.715C160.336 24.495 160.516 25.11 160.696 25.56C161.086 24.21 161.476 22.86 161.866 21.51C162.286 20.16 162.736 18.795 163.216 17.415C163.456 16.695 163.696 16.05 163.936 15.48C164.206 14.88 164.506 14.385 164.836 13.995C165.166 13.605 165.541 13.35 165.961 13.23C166.381 13.11 166.876 13.155 167.446 13.365C167.956 13.575 168.406 14.025 168.796 14.715C169.186 15.405 169.531 16.11 169.831 16.83C170.101 17.49 170.356 18.195 170.596 18.945C170.866 19.665 171.121 20.385 171.361 21.105C171.631 21.795 171.886 22.455 172.126 23.085C172.366 23.715 172.606 24.255 172.846 24.705C172.936 24.375 173.041 23.955 173.161 23.445C173.281 22.935 173.401 22.395 173.521 21.825C173.671 21.225 173.806 20.64 173.926 20.07C174.046 19.5 174.166 18.975 174.286 18.495C174.676 16.875 175.081 15.255 175.501 13.635C175.921 11.985 176.326 10.365 176.716 8.775L176.941 8.01C177.001 7.86 177.031 7.71 177.031 7.56C177.061 7.38 177.106 7.185 177.166 6.975C177.226 6.795 177.286 6.63 177.346 6.48C177.406 6.3 177.466 6.105 177.526 5.895C177.586 5.745 177.646 5.595 177.706 5.445C177.796 5.265 177.901 5.1 178.021 4.95C178.111 4.8 178.216 4.68 178.336 4.59C178.456 4.5 178.576 4.425 178.696 4.365C179.116 4.125 179.476 4.005 179.776 4.005C180.166 4.005 180.541 4.065 180.901 4.185C181.381 4.275 181.816 4.47 182.206 4.77C182.506 5.07 182.686 5.46 182.746 5.94ZM210.637 32.94C210.667 33.12 210.682 33.3 210.682 33.48C210.712 33.63 210.727 33.81 210.727 34.02C210.727 34.38 210.622 34.71 210.412 35.01C210.322 35.16 210.202 35.31 210.052 35.46C209.902 35.58 209.722 35.685 209.512 35.775C208.762 36.195 207.967 36.345 207.127 36.225C206.707 36.105 206.332 35.91 206.002 35.64C205.942 35.58 205.897 35.55 205.867 35.55C205.837 35.52 205.807 35.475 205.777 35.415C205.747 35.385 205.717 35.355 205.687 35.325C205.657 35.265 205.612 35.22 205.552 35.19C205.402 35.04 205.282 34.905 205.192 34.785C205.102 34.635 205.012 34.485 204.922 34.335C204.862 34.185 204.787 34.05 204.697 33.93C204.637 33.78 204.562 33.63 204.472 33.48C204.412 33.36 204.352 33.255 204.292 33.165C204.232 33.045 204.187 32.925 204.157 32.805C204.037 32.535 203.962 32.295 203.932 32.085L202.987 29.88C200.917 29.88 198.847 29.895 196.777 29.925C194.737 29.925 192.682 29.91 190.612 29.88L189.667 32.085C189.607 32.205 189.562 32.325 189.532 32.445C189.532 32.565 189.502 32.685 189.442 32.805C189.382 32.925 189.322 33.045 189.262 33.165C189.232 33.255 189.187 33.36 189.127 33.48C189.037 33.63 188.947 33.78 188.857 33.93C188.797 34.05 188.722 34.185 188.632 34.335C188.572 34.485 188.497 34.635 188.407 34.785C188.317 34.905 188.197 35.04 188.047 35.19C187.987 35.22 187.942 35.265 187.912 35.325C187.882 35.355 187.852 35.385 187.822 35.415C187.792 35.475 187.762 35.52 187.732 35.55C187.702 35.55 187.657 35.58 187.597 35.64C187.267 35.91 186.892 36.105 186.472 36.225C185.632 36.345 184.837 36.195 184.087 35.775C183.877 35.685 183.697 35.58 183.547 35.46C183.397 35.31 183.277 35.16 183.187 35.01C182.977 34.71 182.872 34.38 182.872 34.02C182.872 33.81 182.872 33.63 182.872 33.48C182.902 33.3 182.932 33.12 182.962 32.94C183.022 32.67 183.097 32.4 183.187 32.13C183.277 31.86 183.322 31.725 183.322 31.725L192.682 8.685L192.952 7.965C193.012 7.785 193.087 7.62 193.177 7.47C193.267 7.32 193.342 7.14 193.402 6.93C193.552 6.54 193.717 6.195 193.897 5.895C193.987 5.715 194.092 5.55 194.212 5.4C194.332 5.25 194.452 5.1 194.572 4.95C194.752 4.71 195.007 4.515 195.337 4.365C195.757 4.215 196.237 4.14 196.777 4.14C197.347 4.14 197.842 4.215 198.262 4.365C198.592 4.515 198.847 4.71 199.027 4.95C199.237 5.22 199.462 5.535 199.702 5.895C199.882 6.195 200.047 6.54 200.197 6.93C200.257 7.14 200.332 7.32 200.422 7.47C200.512 7.62 200.587 7.785 200.647 7.965L200.917 8.685L210.277 31.725C210.277 31.725 210.322 31.86 210.412 32.13C210.502 32.4 210.577 32.67 210.637 32.94ZM199.972 21.915C199.582 21.045 199.177 20.145 198.757 19.215C198.367 18.285 197.947 17.34 197.497 16.38C197.377 16.11 197.257 15.84 197.137 15.57C197.017 15.27 196.897 14.985 196.777 14.715C196.687 14.985 196.582 15.27 196.462 15.57C196.342 15.84 196.222 16.11 196.102 16.38C195.652 17.34 195.217 18.285 194.797 19.215C194.407 20.145 194.017 21.045 193.627 21.915L192.817 23.895H200.782L199.972 21.915ZM237.647 22.905C237.797 23.325 237.902 23.805 237.962 24.345C238.052 24.855 238.097 25.38 238.097 25.92C238.097 26.46 238.052 27 237.962 27.54C237.902 28.05 237.812 28.5 237.692 28.89C237.212 30.57 236.252 31.98 234.812 33.12C233.372 34.23 231.722 35.04 229.862 35.55C228.032 36.06 226.127 36.24 224.147 36.09C222.197 35.94 220.457 35.445 218.927 34.605C217.967 34.065 217.142 33.405 216.452 32.625C215.762 31.845 215.177 30.975 214.697 30.015C214.517 29.685 214.397 29.31 214.337 28.89C214.307 28.44 214.352 28.02 214.472 27.63C214.592 27.21 214.787 26.85 215.057 26.55C215.327 26.22 215.702 25.995 216.182 25.875C216.482 25.815 216.812 25.785 217.172 25.785C217.562 25.785 217.937 25.845 218.297 25.965C218.657 26.055 218.987 26.22 219.287 26.46C219.587 26.67 219.827 26.97 220.007 27.36C220.337 27.99 220.802 28.575 221.402 29.115C222.032 29.625 222.692 30.045 223.382 30.375C224.372 30.705 225.362 30.84 226.352 30.78C227.372 30.72 228.287 30.495 229.097 30.105C229.937 29.715 230.612 29.19 231.122 28.53C231.632 27.84 231.887 27.06 231.887 26.19C231.887 25.47 231.782 24.885 231.572 24.435C231.362 23.955 231.062 23.565 230.672 23.265C230.312 22.935 229.862 22.665 229.322 22.455C228.812 22.245 228.242 22.065 227.612 21.915C226.892 21.765 226.157 21.66 225.407 21.6C224.687 21.54 223.952 21.465 223.202 21.375C222.452 21.285 221.717 21.165 220.997 21.015C220.277 20.865 219.572 20.64 218.882 20.34C217.502 19.77 216.452 18.9 215.732 17.73C215.012 16.56 214.577 15.3 214.427 13.95C214.307 12.6 214.472 11.265 214.922 9.945C215.372 8.595 216.092 7.44 217.082 6.48C218.042 5.61 219.182 4.995 220.502 4.635C221.852 4.245 223.337 4.02 224.957 3.96C225.857 3.93 226.757 3.96 227.657 4.05C228.587 4.14 229.472 4.29 230.312 4.5C231.182 4.71 231.977 4.98 232.697 5.31C233.447 5.64 234.092 6.03 234.632 6.48C235.022 6.78 235.412 7.185 235.802 7.695C236.192 8.175 236.492 8.7 236.702 9.27C236.912 9.81 236.972 10.335 236.882 10.845C236.822 11.355 236.507 11.79 235.937 12.15C235.457 12.45 234.992 12.585 234.542 12.555C234.122 12.495 233.717 12.36 233.327 12.15C232.937 11.91 232.562 11.64 232.202 11.34C231.842 11.04 231.512 10.77 231.212 10.53C230.402 9.93 229.397 9.525 228.197 9.315C226.997 9.105 225.872 9.06 224.822 9.18C224.162 9.27 223.547 9.42 222.977 9.63C222.407 9.84 221.912 10.125 221.492 10.485C221.102 10.845 220.787 11.295 220.547 11.835C220.337 12.345 220.262 12.93 220.322 13.59C220.352 14.07 220.487 14.475 220.727 14.805C220.997 15.135 221.312 15.405 221.672 15.615C222.062 15.825 222.482 15.99 222.932 16.11C223.382 16.23 223.832 16.32 224.282 16.38C225.632 16.56 226.982 16.695 228.332 16.785C229.682 16.875 231.002 17.175 232.292 17.685C233.612 18.195 234.737 18.885 235.667 19.755C236.597 20.625 237.257 21.675 237.647 22.905Z" fill="url(#paint2_linear_820_831)"/>
<path d="M81.0347 54.077C80.5287 54.077 80.074 53.989 79.6707 53.813C79.2747 53.6297 78.963 53.3803 78.7357 53.065C78.5084 52.7423 78.391 52.372 78.3837 51.954H79.4507C79.4874 52.3133 79.634 52.6177 79.8907 52.867C80.1547 53.109 80.536 53.23 81.0347 53.23C81.5114 53.23 81.8854 53.1127 82.1567 52.878C82.4354 52.636 82.5747 52.328 82.5747 51.954C82.5747 51.6607 82.494 51.4223 82.3327 51.239C82.1714 51.0557 81.9697 50.9163 81.7277 50.821C81.4857 50.7257 81.1594 50.623 80.7487 50.513C80.2427 50.381 79.8357 50.249 79.5277 50.117C79.227 49.985 78.9667 49.7797 78.7467 49.501C78.534 49.215 78.4277 48.8337 78.4277 48.357C78.4277 47.939 78.534 47.5687 78.7467 47.246C78.9594 46.9233 79.2564 46.674 79.6377 46.498C80.0264 46.322 80.47 46.234 80.9687 46.234C81.6874 46.234 82.274 46.4137 82.7287 46.773C83.1907 47.1323 83.451 47.609 83.5097 48.203H82.4097C82.373 47.9097 82.219 47.653 81.9477 47.433C81.6764 47.2057 81.317 47.092 80.8697 47.092C80.4517 47.092 80.1107 47.202 79.8467 47.422C79.5827 47.6347 79.4507 47.9353 79.4507 48.324C79.4507 48.6027 79.5277 48.83 79.6817 49.006C79.843 49.182 80.0374 49.3177 80.2647 49.413C80.4994 49.501 80.8257 49.6037 81.2437 49.721C81.7497 49.8603 82.1567 49.9997 82.4647 50.139C82.7727 50.271 83.0367 50.48 83.2567 50.766C83.4767 51.0447 83.5867 51.426 83.5867 51.91C83.5867 52.284 83.4877 52.636 83.2897 52.966C83.0917 53.296 82.7984 53.5637 82.4097 53.769C82.021 53.9743 81.5627 54.077 81.0347 54.077ZM86.0608 46.333V54H85.0598V46.333H86.0608ZM90.1978 54.077C89.6918 54.077 89.2371 53.989 88.8338 53.813C88.4378 53.6297 88.1261 53.3803 87.8988 53.065C87.6715 52.7423 87.5541 52.372 87.5468 51.954H88.6138C88.6505 52.3133 88.7971 52.6177 89.0538 52.867C89.3178 53.109 89.6991 53.23 90.1978 53.23C90.6745 53.23 91.0485 53.1127 91.3198 52.878C91.5985 52.636 91.7378 52.328 91.7378 51.954C91.7378 51.6607 91.6571 51.4223 91.4958 51.239C91.3345 51.0557 91.1328 50.9163 90.8908 50.821C90.6488 50.7257 90.3225 50.623 89.9118 50.513C89.4058 50.381 88.9988 50.249 88.6908 50.117C88.3901 49.985 88.1298 49.7797 87.9098 49.501C87.6971 49.215 87.5908 48.8337 87.5908 48.357C87.5908 47.939 87.6971 47.5687 87.9098 47.246C88.1225 46.9233 88.4195 46.674 88.8008 46.498C89.1895 46.322 89.6331 46.234 90.1318 46.234C90.8505 46.234 91.4371 46.4137 91.8918 46.773C92.3538 47.1323 92.6141 47.609 92.6728 48.203H91.5728C91.5361 47.9097 91.3821 47.653 91.1108 47.433C90.8395 47.2057 90.4801 47.092 90.0328 47.092C89.6148 47.092 89.2738 47.202 89.0098 47.422C88.7458 47.6347 88.6138 47.9353 88.6138 48.324C88.6138 48.6027 88.6908 48.83 88.8448 49.006C89.0061 49.182 89.2005 49.3177 89.4278 49.413C89.6625 49.501 89.9888 49.6037 90.4068 49.721C90.9128 49.8603 91.3198 49.9997 91.6278 50.139C91.9358 50.271 92.1998 50.48 92.4198 50.766C92.6398 51.0447 92.7498 51.426 92.7498 51.91C92.7498 52.284 92.6508 52.636 92.4528 52.966C92.2548 53.296 91.9615 53.5637 91.5728 53.769C91.1841 53.9743 90.7258 54.077 90.1978 54.077ZM98.9419 46.333V47.147H96.8519V54H95.8509V47.147H93.7499V46.333H98.9419ZM101.175 47.147V49.71H103.969V50.535H101.175V53.175H104.299V54H100.174V46.322H104.299V47.147H101.175ZM113.591 46.388V54H112.59V48.324L110.06 54H109.356L106.815 48.313V54H105.814V46.388H106.892L109.708 52.68L112.524 46.388H113.591ZM123.347 48.577C123.347 49.215 123.127 49.7467 122.687 50.172C122.254 50.59 121.591 50.799 120.696 50.799H119.222V54H118.221V46.333H120.696C121.561 46.333 122.218 46.542 122.665 46.96C123.12 47.378 123.347 47.917 123.347 48.577ZM120.696 49.974C121.253 49.974 121.664 49.853 121.928 49.611C122.192 49.369 122.324 49.0243 122.324 48.577C122.324 47.631 121.781 47.158 120.696 47.158H119.222V49.974H120.696ZM125.592 47.147V49.71H128.386V50.535H125.592V53.175H128.716V54H124.591V46.322H128.716V47.147H125.592ZM136.259 54H135.258L131.232 47.895V54H130.231V46.322H131.232L135.258 52.416V46.322H136.259V54ZM143.773 48.555C143.56 48.1077 143.252 47.763 142.849 47.521C142.446 47.2717 141.976 47.147 141.441 47.147C140.906 47.147 140.422 47.2717 139.989 47.521C139.564 47.763 139.226 48.115 138.977 48.577C138.735 49.0317 138.614 49.5597 138.614 50.161C138.614 50.7623 138.735 51.2903 138.977 51.745C139.226 52.1997 139.564 52.5517 139.989 52.801C140.422 53.043 140.906 53.164 141.441 53.164C142.189 53.164 142.805 52.9403 143.289 52.493C143.773 52.0457 144.055 51.4407 144.136 50.678H141.078V49.864H145.203V50.634C145.144 51.2647 144.946 51.844 144.609 52.372C144.272 52.8927 143.828 53.307 143.278 53.615C142.728 53.9157 142.116 54.066 141.441 54.066C140.73 54.066 140.081 53.901 139.494 53.571C138.907 53.2337 138.442 52.768 138.097 52.174C137.76 51.58 137.591 50.909 137.591 50.161C137.591 49.413 137.76 48.742 138.097 48.148C138.442 47.5467 138.907 47.081 139.494 46.751C140.081 46.4137 140.73 46.245 141.441 46.245C142.255 46.245 142.974 46.4467 143.597 46.85C144.228 47.2533 144.686 47.8217 144.972 48.555H143.773ZM151.059 52.295H147.715L147.099 54H146.043L148.815 46.377H149.97L152.731 54H151.675L151.059 52.295ZM150.773 51.481L149.387 47.609L148.001 51.481H150.773ZM163.575 46.333L161.353 54H160.231L158.449 47.829L156.601 54L155.49 54.011L153.345 46.333H154.412L156.084 52.834L157.932 46.333H159.054L160.814 52.812L162.497 46.333H163.575ZM169.202 52.295H165.858L165.242 54H164.186L166.958 46.377H168.113L170.874 54H169.818L169.202 52.295ZM168.916 51.481L167.53 47.609L166.144 51.481H168.916ZM174.513 54.077C174.007 54.077 173.553 53.989 173.149 53.813C172.753 53.6297 172.442 53.3803 172.214 53.065C171.987 52.7423 171.87 52.372 171.862 51.954H172.929C172.966 52.3133 173.113 52.6177 173.369 52.867C173.633 53.109 174.015 53.23 174.513 53.23C174.99 53.23 175.364 53.1127 175.635 52.878C175.914 52.636 176.053 52.328 176.053 51.954C176.053 51.6607 175.973 51.4223 175.811 51.239C175.65 51.0557 175.448 50.9163 175.206 50.821C174.964 50.7257 174.638 50.623 174.227 50.513C173.721 50.381 173.314 50.249 173.006 50.117C172.706 49.985 172.445 49.7797 172.225 49.501C172.013 49.215 171.906 48.8337 171.906 48.357C171.906 47.939 172.013 47.5687 172.225 47.246C172.438 46.9233 172.735 46.674 173.116 46.498C173.505 46.322 173.949 46.234 174.447 46.234C175.166 46.234 175.753 46.4137 176.207 46.773C176.669 47.1323 176.93 47.609 176.988 48.203H175.888C175.852 47.9097 175.698 47.653 175.426 47.433C175.155 47.2057 174.796 47.092 174.348 47.092C173.93 47.092 173.589 47.202 173.325 47.422C173.061 47.6347 172.929 47.9353 172.929 48.324C172.929 48.6027 173.006 48.83 173.16 49.006C173.322 49.182 173.516 49.3177 173.743 49.413C173.978 49.501 174.304 49.6037 174.722 49.721C175.228 49.8603 175.635 49.9997 175.943 50.139C176.251 50.271 176.515 50.48 176.735 50.766C176.955 51.0447 177.065 51.426 177.065 51.91C177.065 52.284 176.966 52.636 176.768 52.966C176.57 53.296 176.277 53.5637 175.888 53.769C175.5 53.9743 175.041 54.077 174.513 54.077ZM183.07 52.295H179.726L179.11 54H178.054L180.826 46.377H181.981L184.742 54H183.686L183.07 52.295ZM182.784 51.481L181.398 47.609L180.012 51.481H182.784ZM191.978 54H190.977L186.951 47.895V54H185.95V46.322H186.951L190.977 52.416V46.322H191.978V54ZM197.618 46.333V54H196.617V46.333H197.618ZM205.352 54H204.351L200.325 47.895V54H199.324V46.322H200.325L204.351 52.416V46.322H205.352V54ZM211.778 46.333V47.147H209.688V54H208.687V47.147H206.586V46.333H211.778ZM214.011 47.147V49.71H216.805V50.535H214.011V53.175H217.135V54H213.01V46.322H217.135V47.147H214.011ZM222.687 54L220.861 50.865H219.651V54H218.65V46.333H221.125C221.704 46.333 222.192 46.432 222.588 46.63C222.991 46.828 223.292 47.0957 223.49 47.433C223.688 47.7703 223.787 48.1553 223.787 48.588C223.787 49.116 223.633 49.5817 223.325 49.985C223.024 50.3883 222.569 50.656 221.961 50.788L223.886 54H222.687ZM219.651 50.062H221.125C221.667 50.062 222.074 49.93 222.346 49.666C222.617 49.3947 222.753 49.0353 222.753 48.588C222.753 48.1333 222.617 47.7813 222.346 47.532C222.082 47.2827 221.675 47.158 221.125 47.158H219.651V50.062ZM231.37 54H230.369L226.343 47.895V54H225.342V46.322H226.343L230.369 52.416V46.322H231.37V54ZM237.608 52.295H234.264L233.648 54H232.592L235.364 46.377H236.519L239.28 54H238.224L237.608 52.295ZM237.322 51.481L235.936 47.609L234.55 51.481H237.322ZM241.489 53.186H244.173V54H240.488V46.333H241.489V53.186Z" fill="url(#paint3_linear_820_831)"/>
<path d="M82.7617 65L79.6047 61.502V65H78.6037V57.333H79.6047V60.886L82.7727 57.333H84.0377L80.5617 61.172L84.0707 65H82.7617ZM87.8177 65.099C87.253 65.099 86.7397 64.9707 86.2777 64.714C85.823 64.4573 85.4637 64.0943 85.1997 63.625C84.943 63.1483 84.8147 62.5983 84.8147 61.975C84.8147 61.359 84.9467 60.8163 85.2107 60.347C85.482 59.8703 85.8487 59.5073 86.3107 59.258C86.7727 59.0013 87.2897 58.873 87.8617 58.873C88.4337 58.873 88.9507 59.0013 89.4127 59.258C89.8747 59.5073 90.2377 59.8667 90.5017 60.336C90.773 60.8053 90.9087 61.3517 90.9087 61.975C90.9087 62.5983 90.7693 63.1483 90.4907 63.625C90.2193 64.0943 89.849 64.4573 89.3797 64.714C88.9103 64.9707 88.3897 65.099 87.8177 65.099ZM87.8177 64.219C88.177 64.219 88.5143 64.1347 88.8297 63.966C89.145 63.7973 89.398 63.5443 89.5887 63.207C89.7867 62.8697 89.8857 62.459 89.8857 61.975C89.8857 61.491 89.7903 61.0803 89.5997 60.743C89.409 60.4057 89.1597 60.1563 88.8517 59.995C88.5437 59.8263 88.21 59.742 87.8507 59.742C87.484 59.742 87.1467 59.8263 86.8387 59.995C86.538 60.1563 86.296 60.4057 86.1127 60.743C85.9293 61.0803 85.8377 61.491 85.8377 61.975C85.8377 62.4663 85.9257 62.8807 86.1017 63.218C86.285 63.5553 86.527 63.8083 86.8277 63.977C87.1283 64.1383 87.4583 64.219 87.8177 64.219ZM93.4458 59.797V63.35C93.4458 63.6433 93.5081 63.8523 93.6328 63.977C93.7575 64.0943 93.9738 64.153 94.2818 64.153H95.0188V65H94.1168C93.5595 65 93.1415 64.8717 92.8628 64.615C92.5841 64.3583 92.4448 63.9367 92.4448 63.35V59.797H91.6638V58.972H92.4448V57.454H93.4458V58.972H95.0188V59.797H93.4458ZM95.8576 61.964C95.8576 61.348 95.9823 60.809 96.2316 60.347C96.481 59.8777 96.822 59.5147 97.2546 59.258C97.6946 59.0013 98.1823 58.873 98.7176 58.873C99.2456 58.873 99.704 58.9867 100.093 59.214C100.481 59.4413 100.771 59.7273 100.962 60.072V58.972H101.974V65H100.962V63.878C100.764 64.23 100.467 64.5233 100.071 64.758C99.682 64.9853 99.2273 65.099 98.7066 65.099C98.1713 65.099 97.6873 64.967 97.2546 64.703C96.822 64.439 96.481 64.0687 96.2316 63.592C95.9823 63.1153 95.8576 62.5727 95.8576 61.964ZM100.962 61.975C100.962 61.5203 100.87 61.1243 100.687 60.787C100.503 60.4497 100.254 60.193 99.9386 60.017C99.6306 59.8337 99.2896 59.742 98.9156 59.742C98.5416 59.742 98.2006 59.83 97.8926 60.006C97.5846 60.182 97.339 60.4387 97.1556 60.776C96.9723 61.1133 96.8806 61.5093 96.8806 61.964C96.8806 62.426 96.9723 62.8293 97.1556 63.174C97.339 63.5113 97.5846 63.7717 97.8926 63.955C98.2006 64.131 98.5416 64.219 98.9156 64.219C99.2896 64.219 99.6306 64.131 99.9386 63.955C100.254 63.7717 100.503 63.5113 100.687 63.174C100.87 62.8293 100.962 62.4297 100.962 61.975ZM111.317 57.333V58.147H109.227V65H108.226V58.147H106.125V57.333H111.317ZM112.175 61.964C112.175 61.348 112.3 60.809 112.549 60.347C112.798 59.8777 113.139 59.5147 113.572 59.258C114.012 59.0013 114.5 58.873 115.035 58.873C115.563 58.873 116.021 58.9867 116.41 59.214C116.799 59.4413 117.088 59.7273 117.279 60.072V58.972H118.291V65H117.279V63.878C117.081 64.23 116.784 64.5233 116.388 64.758C115.999 64.9853 115.545 65.099 115.024 65.099C114.489 65.099 114.005 64.967 113.572 64.703C113.139 64.439 112.798 64.0687 112.549 63.592C112.3 63.1153 112.175 62.5727 112.175 61.964ZM117.279 61.975C117.279 61.5203 117.187 61.1243 117.004 60.787C116.821 60.4497 116.571 60.193 116.256 60.017C115.948 59.8337 115.607 59.742 115.233 59.742C114.859 59.742 114.518 59.83 114.21 60.006C113.902 60.182 113.656 60.4387 113.473 60.776C113.29 61.1133 113.198 61.5093 113.198 61.964C113.198 62.426 113.29 62.8293 113.473 63.174C113.656 63.5113 113.902 63.7717 114.21 63.955C114.518 64.131 114.859 64.219 115.233 64.219C115.607 64.219 115.948 64.131 116.256 63.955C116.571 63.7717 116.821 63.5113 117.004 63.174C117.187 62.8293 117.279 62.4297 117.279 61.975ZM122.117 65.099C121.655 65.099 121.24 65.022 120.874 64.868C120.507 64.7067 120.217 64.4867 120.005 64.208C119.792 63.922 119.675 63.5957 119.653 63.229H120.687C120.716 63.5297 120.855 63.7753 121.105 63.966C121.361 64.1567 121.695 64.252 122.106 64.252C122.487 64.252 122.788 64.1677 123.008 63.999C123.228 63.8303 123.338 63.6177 123.338 63.361C123.338 63.097 123.22 62.9027 122.986 62.778C122.751 62.646 122.388 62.5177 121.897 62.393C121.449 62.2757 121.083 62.1583 120.797 62.041C120.518 61.9163 120.276 61.7367 120.071 61.502C119.873 61.26 119.774 60.9447 119.774 60.556C119.774 60.248 119.865 59.9657 120.049 59.709C120.232 59.4523 120.492 59.2507 120.83 59.104C121.167 58.95 121.552 58.873 121.985 58.873C122.652 58.873 123.191 59.0417 123.602 59.379C124.012 59.7163 124.232 60.1783 124.262 60.765H123.261C123.239 60.4497 123.11 60.1967 122.876 60.006C122.648 59.8153 122.34 59.72 121.952 59.72C121.592 59.72 121.306 59.797 121.094 59.951C120.881 60.105 120.775 60.3067 120.775 60.556C120.775 60.754 120.837 60.919 120.962 61.051C121.094 61.1757 121.255 61.2783 121.446 61.359C121.644 61.4323 121.915 61.5167 122.26 61.612C122.692 61.7293 123.044 61.8467 123.316 61.964C123.587 62.074 123.818 62.2427 124.009 62.47C124.207 62.6973 124.309 62.9943 124.317 63.361C124.317 63.691 124.225 63.988 124.042 64.252C123.858 64.516 123.598 64.725 123.261 64.879C122.931 65.0257 122.549 65.099 122.117 65.099ZM126.247 57.993C126.056 57.993 125.895 57.927 125.763 57.795C125.631 57.663 125.565 57.5017 125.565 57.311C125.565 57.1203 125.631 56.959 125.763 56.827C125.895 56.695 126.056 56.629 126.247 56.629C126.43 56.629 126.584 56.695 126.709 56.827C126.841 56.959 126.907 57.1203 126.907 57.311C126.907 57.5017 126.841 57.663 126.709 57.795C126.584 57.927 126.43 57.993 126.247 57.993ZM126.731 58.972V65H125.73V58.972H126.731ZM131.803 65L129.438 62.338V65H128.437V56.86H129.438V61.645L131.759 58.972H133.156L130.318 61.975L133.167 65H131.803ZM141.347 58.862C141.816 58.862 142.234 58.961 142.601 59.159C142.968 59.3497 143.257 59.6393 143.47 60.028C143.683 60.4167 143.789 60.8897 143.789 61.447V65H142.799V61.59C142.799 60.9887 142.649 60.5303 142.348 60.215C142.055 59.8923 141.655 59.731 141.149 59.731C140.628 59.731 140.214 59.8997 139.906 60.237C139.598 60.567 139.444 61.0473 139.444 61.678V65H138.454V61.59C138.454 60.9887 138.304 60.5303 138.003 60.215C137.71 59.8923 137.31 59.731 136.804 59.731C136.283 59.731 135.869 59.8997 135.561 60.237C135.253 60.567 135.099 61.0473 135.099 61.678V65H134.098V58.972H135.099V59.841C135.297 59.5257 135.561 59.2837 135.891 59.115C136.228 58.9463 136.599 58.862 137.002 58.862C137.508 58.862 137.955 58.9757 138.344 59.203C138.733 59.4303 139.022 59.764 139.213 60.204C139.382 59.7787 139.66 59.4487 140.049 59.214C140.438 58.9793 140.87 58.862 141.347 58.862ZM145.057 61.964C145.057 61.348 145.182 60.809 145.431 60.347C145.68 59.8777 146.021 59.5147 146.454 59.258C146.894 59.0013 147.382 58.873 147.917 58.873C148.445 58.873 148.903 58.9867 149.292 59.214C149.681 59.4413 149.97 59.7273 150.161 60.072V58.972H151.173V65H150.161V63.878C149.963 64.23 149.666 64.5233 149.27 64.758C148.881 64.9853 148.427 65.099 147.906 65.099C147.371 65.099 146.887 64.967 146.454 64.703C146.021 64.439 145.68 64.0687 145.431 63.592C145.182 63.1153 145.057 62.5727 145.057 61.964ZM150.161 61.975C150.161 61.5203 150.069 61.1243 149.886 60.787C149.703 60.4497 149.453 60.193 149.138 60.017C148.83 59.8337 148.489 59.742 148.115 59.742C147.741 59.742 147.4 59.83 147.092 60.006C146.784 60.182 146.538 60.4387 146.355 60.776C146.172 61.1133 146.08 61.5093 146.08 61.964C146.08 62.426 146.172 62.8293 146.355 63.174C146.538 63.5113 146.784 63.7717 147.092 63.955C147.4 64.131 147.741 64.219 148.115 64.219C148.489 64.219 148.83 64.131 149.138 63.955C149.453 63.7717 149.703 63.5113 149.886 63.174C150.069 62.8293 150.161 62.4297 150.161 61.975ZM153.865 56.86V65H152.864V56.86H153.865ZM155.197 61.964C155.197 61.348 155.322 60.809 155.571 60.347C155.821 59.8777 156.162 59.5147 156.594 59.258C157.034 59.0013 157.522 58.873 158.057 58.873C158.585 58.873 159.044 58.9867 159.432 59.214C159.821 59.4413 160.111 59.7273 160.301 60.072V58.972H161.313V65H160.301V63.878C160.103 64.23 159.806 64.5233 159.41 64.758C159.022 64.9853 158.567 65.099 158.046 65.099C157.511 65.099 157.027 64.967 156.594 64.703C156.162 64.439 155.821 64.0687 155.571 63.592C155.322 63.1153 155.197 62.5727 155.197 61.964ZM160.301 61.975C160.301 61.5203 160.21 61.1243 160.026 60.787C159.843 60.4497 159.594 60.193 159.278 60.017C158.97 59.8337 158.629 59.742 158.255 59.742C157.881 59.742 157.54 59.83 157.232 60.006C156.924 60.182 156.679 60.4387 156.495 60.776C156.312 61.1133 156.22 61.5093 156.22 61.964C156.22 62.426 156.312 62.8293 156.495 63.174C156.679 63.5113 156.924 63.7717 157.232 63.955C157.54 64.131 157.881 64.219 158.255 64.219C158.629 64.219 158.97 64.131 159.278 63.955C159.594 63.7717 159.843 63.5113 160.026 63.174C160.21 62.8293 160.301 62.4297 160.301 61.975ZM168.197 58.972L164.567 67.838H163.533L164.721 64.934L162.29 58.972H163.401L165.293 63.856L167.163 58.972H168.197ZM168.829 61.964C168.829 61.348 168.954 60.809 169.203 60.347C169.453 59.8777 169.794 59.5147 170.226 59.258C170.666 59.0013 171.154 58.873 171.689 58.873C172.217 58.873 172.676 58.9867 173.064 59.214C173.453 59.4413 173.743 59.7273 173.933 60.072V58.972H174.945V65H173.933V63.878C173.735 64.23 173.438 64.5233 173.042 64.758C172.654 64.9853 172.199 65.099 171.678 65.099C171.143 65.099 170.659 64.967 170.226 64.703C169.794 64.439 169.453 64.0687 169.203 63.592C168.954 63.1153 168.829 62.5727 168.829 61.964ZM173.933 61.975C173.933 61.5203 173.842 61.1243 173.658 60.787C173.475 60.4497 173.226 60.193 172.91 60.017C172.602 59.8337 172.261 59.742 171.887 59.742C171.513 59.742 171.172 59.83 170.864 60.006C170.556 60.182 170.311 60.4387 170.127 60.776C169.944 61.1133 169.852 61.5093 169.852 61.964C169.852 62.426 169.944 62.8293 170.127 63.174C170.311 63.5113 170.556 63.7717 170.864 63.955C171.172 64.131 171.513 64.219 171.887 64.219C172.261 64.219 172.602 64.131 172.91 63.955C173.226 63.7717 173.475 63.5113 173.658 63.174C173.842 62.8293 173.933 62.4297 173.933 61.975Z" fill="url(#paint4_linear_820_831)"/>
<defs>
<linearGradient id="paint0_linear_820_831" x1="65.7566" y1="20.5267" x2="13.8635" y2="20.5267" gradientUnits="userSpaceOnUse">
<stop stop-color="#73E5E2"/>
<stop offset="1" stop-color="#394F87"/>
</linearGradient>
<linearGradient id="paint1_linear_820_831" x1="0.891847" y1="46.4734" x2="52.785" y2="46.4734" gradientUnits="userSpaceOnUse">
<stop stop-color="#FBDC8E"/>
<stop offset="1" stop-color="#FB958E"/>
</linearGradient>
<linearGradient id="paint2_linear_820_831" x1="77.7567" y1="22.5001" x2="245.108" y2="22.5001" gradientUnits="userSpaceOnUse">
<stop stop-color="#70DEDE"/>
<stop offset="1" stop-color="#FBCF8E"/>
</linearGradient>
<linearGradient id="paint3_linear_820_831" x1="77.7567" y1="50.5" x2="245.108" y2="50.5" gradientUnits="userSpaceOnUse">
<stop stop-color="#70DEDE"/>
<stop offset="1" stop-color="#FBCF8E"/>
</linearGradient>
<linearGradient id="paint4_linear_820_831" x1="77.7567" y1="61.5" x2="245.108" y2="61.5" gradientUnits="userSpaceOnUse">
<stop stop-color="#70DEDE"/>
<stop offset="1" stop-color="#FBCF8E"/>
</linearGradient>
</defs>
</svg>
