<svg width="65" height="52" viewBox="0 0 65 52" fill="none" xmlns="http://www.w3.org/2000/svg">
<path d="M64.8648 25.9466C64.8648 19.0652 62.1311 12.4655 57.2652 7.59957C52.3992 2.73365 45.7996 9.02394e-07 38.9182 0C32.0368 -9.02392e-07 25.4372 2.73365 20.5713 7.59957C15.7053 12.4655 12.9717 19.0652 12.9717 25.9466H21.0801C23.767 25.9466 25.8624 23.6949 26.8465 21.1947C27.4927 19.5532 28.4732 18.0447 29.7447 16.773C32.1776 14.3401 35.4775 12.9733 38.9182 12.9733C42.3589 12.9733 45.6588 14.3401 48.0918 16.773C50.5247 19.206 51.8914 22.5059 51.8914 25.9466H64.8648Z" fill="url(#paint0_linear_821_2973)"/>
<path d="M49.9179 35.8758C51.2219 32.7278 51.8931 29.3538 51.8931 25.9465H64.8649C64.8649 40.2764 53.2482 51.8929 38.9184 51.8929C36.6742 51.8929 34.4965 51.6081 32.4198 51.0725C33.5948 50.7698 34.7497 50.3843 35.8757 49.9179C39.0237 48.614 41.8841 46.7029 44.2934 44.2935C46.7028 41.8841 48.6141 39.0238 49.9179 35.8758Z" fill="#FBCF8E"/>
<path d="M0 25.9465C-4.87451e-07 29.354 0.671127 32.7279 1.97506 35.8759C3.279 39.0239 5.1902 41.8843 7.59957 44.2936C10.0089 46.7029 12.8693 48.6141 16.0172 49.9181C19.1652 51.2221 22.5391 51.8931 25.9466 51.8931C29.3538 51.8931 32.7278 51.2221 35.8758 49.9181C39.0238 48.6141 41.8841 46.7029 44.2935 44.2936C46.7029 41.8843 48.614 39.0239 49.918 35.8759C51.2219 32.7279 51.8932 29.354 51.8932 25.9465H43.7847C41.0978 25.9465 39.0024 28.1982 38.0182 30.6982C37.9903 30.7695 37.9615 30.8404 37.9323 30.9113C37.2803 32.4852 36.3247 33.9155 35.12 35.1201C33.9154 36.3247 32.4851 37.2804 30.9112 37.9324C29.3373 38.5844 27.6503 38.9199 25.9466 38.9199C24.2429 38.9199 22.5559 38.5844 20.982 37.9324C19.4079 37.2804 17.9778 36.3247 16.773 35.1201C15.5684 33.9155 14.6128 32.4852 13.9608 30.9113C13.3088 29.3372 12.9733 27.6502 12.9733 25.9465H0Z" fill="url(#paint1_linear_821_2973)"/>
<path d="M0.00256348 25.9466C0.00256348 11.6166 11.6192 0 25.949 0C28.1926 0 30.3697 0.284754 32.4462 0.820115C27.9906 1.96793 23.8803 4.29081 20.5714 7.59959C15.7055 12.4655 12.9719 19.0652 12.9719 25.9466H0.00256348Z" fill="#73E5E2"/>
<defs>
<linearGradient id="paint0_linear_821_2973" x1="64.8648" y1="12.9733" x2="12.9717" y2="12.9733" gradientUnits="userSpaceOnUse">
<stop stop-color="#73E5E2"/>
<stop offset="1" stop-color="#394F87"/>
</linearGradient>
<linearGradient id="paint1_linear_821_2973" x1="1.70124e-06" y1="38.9199" x2="51.8932" y2="38.9199" gradientUnits="userSpaceOnUse">
<stop stop-color="#FBDC8E"/>
<stop offset="1" stop-color="#FB958E"/>
</linearGradient>
</defs>
</svg>
